Jump_normalized_Motion_pl05
version=1
nRows=8
nColumns=43
inDegrees=yes
endheader
time		pelvis_tilt		pelvis_list		pelvis_rotation		pelvis_tx		pelvis_ty		pelvis_tz		hip_flexion_r		hip_adduction_r		hip_rotation_r		knee_angle_r		ankle_angle_r		subtalar_angle_r		mtp_angle_r		hip_flexion_l		hip_adduction_l		hip_rotation_l		knee_angle_l		ankle_angle_l		subtalar_angle_l		mtp_angle_l		lumbar_extension		lumbar_bending		lumbar_rotation		neck_flexion		neck_lateral_bending		neck_rotation		arm_flex_r		arm_add_r		arm_rot_r		elbow_flex_r		pro_sup_r		wrist_flex_r		wrist_dev_r		hand_finger_flex_r		arm_flex_l		arm_add_l		arm_rot_l		elbow_flex_l		pro_sup_l		wrist_flex_l		wrist_dev_l		hand_finger_flex_l		
0.366667		1.824023		-26.256836		93.697370		0.043321		1.661759		1.824239		93.004751		-12.710160		8.377478		-145.326028		45.007878		5.336039		-19.977018		95.614540		-13.539011		10.883724		-142.934749		47.020571		1.756967		-24.045006		-37.076581		-0.183384		1.423443		42.002650		1.318527		3.070900		93.219833		-29.270120		28.430279		82.407579		56.342166		-18.662246		-21.753352		61.443878		104.042170		-28.119138		49.514960		82.315537		62.143033		-46.393281		5.595160		67.994757		
0.369596		1.848978		-26.564868		93.711120		0.043299		1.663133		1.821373		92.670573		-12.714977		8.212195		-145.070516		45.056936		5.263088		-19.850533		95.319296		-13.540074		10.779304		-142.670558		47.028726		1.643974		-24.010962		-36.671982		-0.163354		1.377103		42.062084		1.358878		3.123040		94.696836		-28.744650		28.976288		81.891718		56.181583		-18.868985		-21.804378		61.311931		105.117200		-27.580870		49.564105		82.083241		61.929890		-46.343268		5.580271		67.818894		
0.372525		1.867152		-26.902783		93.710817		0.043293		1.664176		1.818564		92.432398		-12.672262		8.120536		-144.877762		45.146925		5.156856		-19.750835		95.094118		-13.509721		10.692105		-142.472623		47.060892		1.496615		-23.979767		-36.206624		-0.165322		1.364287		41.792722		1.419458		3.167380		96.322587		-28.457120		29.810372		81.369335		56.216111		-18.944045		-21.700885		61.248136		106.345231		-27.096854		49.873309		81.802900		61.835526		-46.223263		5.651509		67.733424		
0.375455		1.899696		-27.213726		93.728947		0.043272		1.665682		1.815522		92.076961		-12.675980		7.936988		-144.591052		45.151853		5.112175		-19.649682		94.763918		-13.504891		10.569386		-142.183362		47.024066		1.358944		-23.949122		-35.790936		-0.137797		1.325805		41.864786		1.399680		3.223265		97.690461		-27.905058		30.258651		80.821602		56.035594		-19.114509		-21.742622		61.183092		107.385608		-26.574820		49.923629		81.515968		61.653551		-46.187321		5.660808		67.649595		
0.378384		1.979347		-27.186568		93.792493		0.043127		1.667793		1.812282		91.319133		-12.697312		7.705805		-144.300831		45.140488		4.967974		-19.357473		94.096813		-13.454059		10.492209		-141.908898		46.921830		0.972456		-23.856509		-35.807200		0.039649		1.224493		41.844034		1.203280		3.424310		99.529871		-27.378188		31.347141		80.080531		55.425268		-19.468850		-22.133675		61.176912		108.701383		-26.401426		50.243810		81.362995		61.109240		-46.089901		5.630620		67.552141		
0.381313		1.999144		-27.643715		93.798351		0.043142		1.668893		1.809202		91.142611		-12.666269		7.593251		-144.045885		45.201272		4.943062		-19.293992		93.931352		-13.442787		10.401641		-141.637329		46.957159		0.935274		-23.829864		-35.172176		0.016576		1.203665		41.733797		1.342026		3.414953		100.745085		-26.911053		31.723166		79.527981		55.425342		-19.564242		-22.034304		61.163939		109.625257		-25.810305		50.270574		80.990317		61.044014		-46.098693		5.646519		67.488927		
0.384242		2.082463		-27.739447		93.860535		0.043032		1.670771		1.805860		90.524536		-12.669966		7.394473		-143.757716		45.163503		4.872677		-18.965701		93.384983		-13.384917		10.341281		-141.359228		46.835747		0.613419		-23.695541		-35.010374		0.168749		1.134643		41.617788		1.167199		3.585606		102.402527		-26.432811		32.709728		78.802616		54.846527		-19.896020		-22.436656		61.489021		110.861787		-25.596882		50.641866		80.759013		60.480533		-46.114799		5.519998		67.553467		
0.387172		2.129532		-28.061434		93.886838		0.043004		1.672247		1.802483		90.160355		-12.661262		7.237844		-143.473441		45.174513		4.843128		-18.791604		93.051331		-13.366482		10.252735		-141.072604		46.807831		0.492128		-23.620192		-34.540523		0.211190		1.091578		41.513283		1.203683		3.631824		103.659002		-25.932773		33.220481		78.185674		54.600846		-20.117354		-22.551677		61.636609		111.806181		-25.161373		50.738080		80.431309		60.207594		-46.169140		5.452151		67.549032		
